<svg width="362" height="112" viewBox="0 0 362 112" fill="none" xmlns="http://www.w3.org/2000/svg">
<g filter="url(#filter0_d_106_48)">
<path d="M30.608 8.60799C42.5547 8.60799 51.2587 10.9547 56.72 15.648C62.1813 20.3413 64.912 26.9547 64.912 35.488C64.912 39.2427 64.272 42.8693 62.992 46.368C61.7973 49.7813 59.792 52.8533 56.976 55.584C54.16 58.3147 50.4053 60.4907 45.712 62.112C41.0187 63.648 35.2587 64.416 28.432 64.416H17.936V100H6.416V8.60799H30.608ZM29.584 18.464H17.936V54.56H27.152C32.9547 54.56 37.776 53.9627 41.616 52.768C45.456 51.488 48.3147 49.4827 50.192 46.752C52.0693 44.0213 53.008 40.4373 53.008 36C53.008 30.112 51.1307 25.7173 47.376 22.816C43.6213 19.9147 37.6907 18.464 29.584 18.464ZM93.644 31.264C93.644 32.8853 93.5587 34.5493 93.388 36.256C93.3027 37.9627 93.1747 39.4987 93.004 40.864H93.772C95.2227 38.4747 97.0573 36.512 99.276 34.976C101.495 33.44 103.969 32.288 106.7 31.52C109.431 30.6667 112.247 30.24 115.148 30.24C120.695 30.24 125.303 31.136 128.972 32.928C132.727 34.6347 135.543 37.3227 137.42 40.992C139.297 44.6613 140.236 49.44 140.236 55.328V100H129.1V56.096C129.1 50.5493 127.863 46.4107 125.388 43.68C122.913 40.9493 119.031 39.584 113.74 39.584C108.62 39.584 104.609 40.5653 101.708 42.528C98.8067 44.4053 96.716 47.2213 95.436 50.976C94.2413 54.6453 93.644 59.168 93.644 64.544V100H82.38V2.71999H93.644V31.264ZM187.489 30.24C195.852 30.24 202.038 32.0747 206.049 35.744C210.06 39.4133 212.065 45.2587 212.065 53.28V100H203.873L201.697 90.272H201.185C199.222 92.7467 197.174 94.8373 195.041 96.544C192.993 98.1653 190.604 99.36 187.873 100.128C185.228 100.896 181.985 101.28 178.145 101.28C174.049 101.28 170.337 100.555 167.009 99.104C163.766 97.6533 161.206 95.4347 159.329 92.448C157.452 89.376 156.513 85.536 156.513 80.928C156.513 74.1013 159.201 68.8533 164.577 65.184C169.953 61.4293 178.23 59.3813 189.409 59.04L201.057 58.656V54.56C201.057 48.8427 199.82 44.8747 197.345 42.656C194.87 40.4373 191.372 39.328 186.849 39.328C183.265 39.328 179.852 39.8827 176.609 40.992C173.366 42.016 170.337 43.2107 167.521 44.576L164.065 36.128C167.052 34.5067 170.593 33.1413 174.689 32.032C178.785 30.8373 183.052 30.24 187.489 30.24ZM190.817 66.848C182.284 67.1893 176.353 68.5547 173.025 70.944C169.782 73.3333 168.161 76.704 168.161 81.056C168.161 84.896 169.313 87.712 171.617 89.504C174.006 91.296 177.036 92.192 180.705 92.192C186.508 92.192 191.329 90.6133 195.169 87.456C199.009 84.2133 200.929 79.264 200.929 72.608V66.464L190.817 66.848ZM292.903 65.568C292.903 71.2853 292.135 76.3627 290.599 80.8C289.148 85.152 287.015 88.864 284.199 91.936C281.468 95.008 278.098 97.3547 274.087 98.976C270.162 100.512 265.767 101.28 260.903 101.28C256.38 101.28 252.199 100.512 248.359 98.976C244.519 97.3547 241.191 95.008 238.375 91.936C235.559 88.864 233.34 85.152 231.719 80.8C230.183 76.3627 229.415 71.2853 229.415 65.568C229.415 57.9733 230.695 51.5733 233.255 46.368C235.815 41.0773 239.484 37.0667 244.263 34.336C249.042 31.52 254.716 30.112 261.287 30.112C267.516 30.112 272.978 31.52 277.671 34.336C282.45 37.0667 286.162 41.0773 288.807 46.368C291.538 51.5733 292.903 57.9733 292.903 65.568ZM241.063 65.568C241.063 70.944 241.746 75.6373 243.111 79.648C244.562 83.5733 246.78 86.6027 249.767 88.736C252.754 90.8693 256.551 91.936 261.159 91.936C265.767 91.936 269.564 90.8693 272.551 88.736C275.538 86.6027 277.714 83.5733 279.079 79.648C280.53 75.6373 281.255 70.944 281.255 65.568C281.255 60.1067 280.53 55.456 279.079 51.616C277.628 47.776 275.41 44.832 272.423 42.784C269.522 40.6507 265.724 39.584 261.031 39.584C254.034 39.584 248.956 41.888 245.799 46.496C242.642 51.104 241.063 57.4613 241.063 65.568ZM355.427 81.056C355.427 85.4933 354.318 89.2053 352.099 92.192C349.88 95.1787 346.723 97.44 342.627 98.976C338.531 100.512 333.667 101.28 328.035 101.28C323.256 101.28 319.118 100.896 315.619 100.128C312.206 99.36 309.176 98.2933 306.531 96.928V86.688C309.262 88.0533 312.547 89.3333 316.387 90.528C320.312 91.6373 324.28 92.192 328.291 92.192C334.008 92.192 338.147 91.296 340.707 89.504C343.267 87.6267 344.547 85.152 344.547 82.08C344.547 80.3733 344.078 78.8373 343.139 77.472C342.2 76.1067 340.494 74.7413 338.019 73.376C335.63 72.0107 332.174 70.4747 327.651 68.768C323.214 67.0613 319.416 65.3547 316.259 63.648C313.102 61.9413 310.67 59.8933 308.963 57.504C307.256 55.1147 306.403 52.0427 306.403 48.288C306.403 42.4853 308.75 38.0053 313.443 34.848C318.222 31.6907 324.451 30.112 332.131 30.112C336.312 30.112 340.195 30.5387 343.779 31.392C347.448 32.16 350.862 33.2693 354.019 34.72L350.179 43.68C348.302 42.8267 346.296 42.1013 344.163 41.504C342.115 40.8213 340.024 40.3093 337.891 39.968C335.758 39.5413 333.582 39.328 331.363 39.328C326.755 39.328 323.214 40.096 320.739 41.632C318.35 43.0827 317.155 45.088 317.155 47.648C317.155 49.5253 317.71 51.1467 318.819 52.512C319.928 53.792 321.763 55.072 324.323 56.352C326.968 57.5467 330.467 58.9973 334.819 60.704C339.171 62.3253 342.883 63.9893 345.955 65.696C349.027 67.4027 351.374 69.4933 352.995 71.968C354.616 74.3573 355.427 77.3867 355.427 81.056Z" fill="#E9CA03"/>
</g>
<defs>
<filter id="filter0_d_106_48" x="0.416016" y="0.719971" width="361.011" height="110.56" filterUnits="userSpaceOnUse" color-interpolation-filters="sRGB">
<feFlood flood-opacity="0" result="BackgroundImageFix"/>
<feColorMatrix in="SourceAlpha" type="matrix" values="0 0 0 0 0 0 0 0 0 0 0 0 0 0 0 0 0 0 127 0" result="hardAlpha"/>
<feOffset dy="4"/>
<feGaussianBlur stdDeviation="3"/>
<feComposite in2="hardAlpha" operator="out"/>
<feColorMatrix type="matrix" values="0 0 0 0 0.773292 0 0 0 0 0.671317 0 0 0 0 0.00848069 0 0 0 0.25 0"/>
<feBlend mode="normal" in2="BackgroundImageFix" result="effect1_dropShadow_106_48"/>
<feBlend mode="normal" in="SourceGraphic" in2="effect1_dropShadow_106_48" result="shape"/>
</filter>
</defs>
</svg>
